# xmcd
#
# Track frame offsets: 
#        150
#        36352
#        64277
#        81687
#        106005
#        138190
#        162182
#        186437
#        207620
#        232685
#        251907
#
# Disc length: 3602 seconds
#
# Revision: 5
# Processed by: cddbd v1.5.2PL0 Copyright (c) Steve Scherf et al.
# Submitted via: ExactAudioCopyFreeDBPlugin 1.0
#
DISCID=9e0e100b
DTITLE=Luther Vandross - The Best Of Luther Vandross The Best Of Love 
DTITLE=CD1
DYEAR=1989
DGENRE=Soul
TTITLE0=Searching
TTITLE1=The Glow Of Love
TTITLE2=Never Too Much
TTITLE3=Cheryl Lynn - Luther Vandross - If This World Were Mine
TTITLE4=A House Is Not A Home
TTITLE5=Bad Boy - Having A Party
TTITLE6=Since I Lost My Baby
TTITLE7=Promise Me
TTITLE8='Til My Baby Comes Home
TTITLE9=If Only For One Night
TTITLE10=Creepin'
EXTD=
EXTT0=
EXTT1=
EXTT2=
EXTT3=
EXTT4=
EXTT5=
EXTT6=
EXTT7=
EXTT8=
EXTT9=
EXTT10=
PLAYORDER=
